<svg xmlns="http://www.w3.org/2000/svg" version="1.1" xmlns:xlink="http://www.w3.org/1999/xlink" xmlns:svgjs="http://svgjs.dev/svgjs" viewBox="0 0 12.07623969065926 10.437964420242949"><g transform="matrix(1,0,0,1,0.9351077603686928,8.401856659874255)"><g><path d=" M 0.6075 0.030000000000000027 Q 0.7845 0.030000000000000027 0.9135 0.09375 Q 1.0425 0.15750000000000008 1.11225 0.2752500000000001 Q 1.182 0.393 1.182 0.555 Q 1.182 0.7170000000000001 1.11225 0.8347500000000001 Q 1.0425 0.9525000000000001 0.9135 1.01625 Q 0.7845 1.08 0.6075 1.08 L 0.2505 1.08 L 0.249 1.0170000000000001 Q 0.2925 1.0170000000000001 0.33975 1.0170000000000001 Q 0.387 1.0170000000000001 0.43125 1.0170000000000001 Q 0.47550000000000003 1.0170000000000001 0.5115000000000001 1.0170000000000001 Q 0.5475 1.0170000000000001 0.5685 1.0170000000000001 Q 0.5895 1.0170000000000001 0.5895 1.0170000000000001 Q 0.6975 1.0170000000000001 0.7755 0.9607500000000001 Q 0.8535 0.9045000000000001 0.8955000000000001 0.801 Q 0.9375 0.6975 0.9375 0.555 Q 0.9375 0.4125000000000001 0.8955000000000001 0.30900000000000005 Q 0.8535 0.20550000000000002 0.7755 0.1492500000000001 Q 0.6975 0.09300000000000008 0.5895 0.09300000000000008 Q 0.5895 0.09300000000000008 0.56775 0.09300000000000008 Q 0.546 0.09300000000000008 0.5085000000000001 0.09300000000000008 Q 0.47100000000000003 0.09300000000000008 0.4245 0.09300000000000008 Q 0.378 0.09300000000000008 0.3285 0.09300000000000008 Q 0.279 0.09300000000000008 0.234 0.09300000000000008 L 0.234 0.030000000000000027 L 0.6075 0.030000000000000027 M 0.4035 0.030000000000000027 L 0.4035 1.08 L 0.1785 1.08 L 0.1785 0.030000000000000027 L 0.4035 0.030000000000000027 M 0.183 0.9705 L 0.183 1.08 L 0.063 1.08 L 0.063 1.0650000000000002 Q 0.063 1.0650000000000002 0.07275 1.0650000000000002 Q 0.0825 1.0650000000000002 0.0825 1.0650000000000002 Q 0.1215 1.0650000000000002 0.14925 1.03725 Q 0.177 1.0095 0.1785 0.9705 L 0.183 0.9705 M 0.183 0.13950000000000007 L 0.1785 0.13950000000000007 Q 0.1785 0.10050000000000003 0.15 0.07275000000000009 Q 0.1215 0.04500000000000015 0.0825 0.04500000000000015 Q 0.0825 0.04500000000000015 0.0735 0.04500000000000015 Q 0.0645 0.04500000000000015 0.0645 0.04500000000000015 L 0.063 0.030000000000000027 L 0.183 0.030000000000000027 L 0.183 0.13950000000000007 M 1.6154750976562502 0.030000000000000027 L 1.6154750976562502 1.08 L 1.39047509765625 1.08 L 1.39047509765625 0.030000000000000027 L 1.6154750976562502 0.030000000000000027 M 1.3949750976562503 0.9705 L 1.3949750976562503 1.08 L 1.2749750976562502 1.08 L 1.2749750976562502 1.0650000000000002 Q 1.2749750976562502 1.0650000000000002 1.2847250976562503 1.0650000000000002 Q 1.2944750976562502 1.0650000000000002 1.2944750976562502 1.0650000000000002 Q 1.3334750976562502 1.0650000000000002 1.3612250976562503 1.03725 Q 1.3889750976562503 1.0095 1.39047509765625 0.9705 L 1.3949750976562503 0.9705 M 1.3949750976562503 0.13950000000000007 L 1.39047509765625 0.13950000000000007 Q 1.3889750976562503 0.10050000000000003 1.3612250976562503 0.07275000000000009 Q 1.3334750976562502 0.04500000000000015 1.2944750976562502 0.04500000000000015 Q 1.2944750976562502 0.04500000000000015 1.2847250976562503 0.04500000000000015 Q 1.2749750976562502 0.04500000000000015 1.2749750976562502 0.04500000000000015 L 1.2749750976562502 0.030000000000000027 L 1.3949750976562503 0.030000000000000027 L 1.3949750976562503 0.13950000000000007 M 1.6109750976562502 0.9705 L 1.6154750976562502 0.9705 Q 1.6169750976562502 1.0095 1.6447250976562502 1.03725 Q 1.6724750976562501 1.0650000000000002 1.7114750976562503 1.0650000000000002 Q 1.7114750976562503 1.0650000000000002 1.7204750976562502 1.0650000000000002 Q 1.72947509765625 1.0650000000000002 1.7309750976562501 1.0650000000000002 L 1.7309750976562501 1.08 L 1.6109750976562502 1.08 L 1.6109750976562502 0.9705 M 1.6109750976562502 0.13950000000000007 L 1.6109750976562502 0.030000000000000027 L 1.7309750976562501 0.030000000000000027 L 1.7309750976562501 0.04500000000000015 Q 1.72947509765625 0.04500000000000015 1.7204750976562502 0.04500000000000015 Q 1.7114750976562503 0.04500000000000015 1.7114750976562503 0.04500000000000015 Q 1.6724750976562501 0.04500000000000015 1.6447250976562502 0.07275000000000009 Q 1.6169750976562502 0.10050000000000003 1.6154750976562502 0.13950000000000007 L 1.6109750976562502 0.13950000000000007 M 2.314538818359375 0 L 2.8035388183593755 1.0710000000000002 L 2.535038818359375 1.0710000000000002 L 2.2230388183593752 0.2895000000000001 L 2.314538818359375 0 M 1.9920388183593751 0.9705 Q 1.9800388183593753 1.0005000000000002 1.9875388183593752 1.0215 Q 1.9950388183593752 1.0425 2.0130388183593753 1.05375 Q 2.031038818359375 1.0650000000000002 2.0490388183593753 1.0650000000000002 L 2.0625388183593754 1.0650000000000002 L 2.0625388183593754 1.08 L 1.7415388183593752 1.08 L 1.7415388183593752 1.0650000000000002 Q 1.7415388183593752 1.0650000000000002 1.7482888183593752 1.0650000000000002 Q 1.7550388183593753 1.0650000000000002 1.7550388183593753 1.0650000000000002 Q 1.7895388183593752 1.0650000000000002 1.8262888183593753 1.04325 Q 1.8630388183593751 1.0215 1.8870388183593751 0.9705 L 1.9920388183593751 0.9705 M 2.314538818359375 0 L 2.3205388183593754 0.18300000000000005 L 1.9485388183593753 1.0755000000000001 L 1.8390388183593753 1.0755000000000001 L 2.2275388183593754 0.1965 Q 2.232038818359375 0.1875 2.243288818359375 0.16275000000000006 Q 2.254538818359375 0.138 2.267288818359375 0.10650000000000004 Q 2.280038818359375 0.07499999999999996 2.290538818359375 0.04574999999999996 Q 2.301038818359375 0.01649999999999996 2.301038818359375 0 L 2.314538818359375 0 M 2.4720388183593753 0.7230000000000001 L 2.4720388183593753 0.786 L 2.031038818359375 0.786 L 2.031038818359375 0.7230000000000001 L 2.4720388183593753 0.7230000000000001 M 2.4945388183593753 0.9705 L 2.7570388183593755 0.9705 Q 2.782538818359375 1.0215 2.818538818359375 1.04325 Q 2.854538818359375 1.0650000000000002 2.889038818359375 1.0650000000000002 Q 2.889038818359375 1.0650000000000002 2.8950388183593754 1.0650000000000002 Q 2.901038818359375 1.0650000000000002 2.901038818359375 1.0650000000000002 L 2.901038818359375 1.08 L 2.4240388183593753 1.08 L 2.4240388183593753 1.0650000000000002 L 2.4375388183593754 1.0650000000000002 Q 2.467538818359375 1.0650000000000002 2.490038818359375 1.0402500000000001 Q 2.512538818359375 1.0155 2.4945388183593753 0.9705 M 3.9435351562500003 0.6600000000000001 L 3.9435351562500003 0.9075000000000001 Q 3.90753515625 0.9525000000000001 3.8362851562499998 0.9975 Q 3.76503515625 1.0425 3.66528515625 1.07175 Q 3.56553515625 1.101 3.44553515625 1.101 Q 3.27453515625 1.101 3.14703515625 1.0342500000000001 Q 3.01953515625 0.9675 2.94903515625 0.8445 Q 2.87853515625 0.7215 2.87853515625 0.5535000000000001 Q 2.87853515625 0.38550000000000006 2.94828515625 0.264 Q 3.01803515625 0.14250000000000007 3.14778515625 0.07574999999999998 Q 3.27753515625 0.009000000000000119 3.45453515625 0.009000000000000119 Q 3.53703515625 0.009000000000000119 3.6150351562500003 0.0202500000000001 Q 3.69303515625 0.031500000000000083 3.75903515625 0.0495000000000001 Q 3.8250351562500002 0.06750000000000012 3.86853515625 0.09150000000000003 L 3.87153515625 0.3480000000000001 L 3.8580351562499997 0.3480000000000001 Q 3.82953515625 0.2460000000000001 3.77553515625 0.18525000000000003 Q 3.72153515625 0.12450000000000006 3.65028515625 0.09825000000000006 Q 3.57903515625 0.07200000000000006 3.49953515625 0.07200000000000006 Q 3.37653515625 0.07200000000000006 3.29253515625 0.1312500000000001 Q 3.20853515625 0.1905 3.16578515625 0.30000000000000004 Q 3.12303515625 0.4095000000000001 3.12303515625 0.5625000000000001 Q 3.12303515625 0.7065000000000001 3.16278515625 0.8137500000000001 Q 3.20253515625 0.921 3.27903515625 0.97875 Q 3.35553515625 1.0365 3.46503515625 1.038 Q 3.5205351562500002 1.038 3.57228515625 1.02075 Q 3.62403515625 1.0035 3.66303515625 0.9705 Q 3.70203515625 0.9375 3.7185351562499998 0.8895000000000001 L 3.72003515625 0.6600000000000001 Q 3.72003515625 0.5925 3.64353515625 0.5925 L 3.61953515625 0.5925 L 3.61953515625 0.5775 L 4.04103515625 0.5775 L 4.04103515625 0.5925 L 4.01853515625 0.5925 Q 3.94053515625 0.5925 3.9435351562500003 0.6600000000000001 M 4.189496337890625 0.007500000000000062 L 5.146496337890625 0.9195000000000001 L 5.1644963378906255 1.101 L 4.207496337890625 0.1905 L 4.189496337890625 0.007500000000000062 M 4.196996337890625 0.9735 L 4.196996337890625 1.08 L 4.072496337890625 1.08 L 4.072496337890625 1.0650000000000002 Q 4.072496337890625 1.0650000000000002 4.085996337890625 1.0650000000000002 Q 4.099496337890625 1.0650000000000002 4.100996337890625 1.0650000000000002 Q 4.138496337890625 1.0650000000000002 4.165496337890625 1.038 Q 4.192496337890625 1.0110000000000001 4.192496337890625 0.9735 L 4.196996337890625 0.9735 M 4.406996337890625 0.9735 Q 4.406996337890625 1.0110000000000001 4.433996337890625 1.038 Q 4.460996337890625 1.0650000000000002 4.498496337890625 1.0650000000000002 Q 4.499996337890625 1.0650000000000002 4.513496337890625 1.0650000000000002 Q 4.526996337890625 1.0650000000000002 4.526996337890625 1.0650000000000002 L 4.526996337890625 1.08 L 4.402496337890625 1.08 L 4.402496337890625 0.9735 L 4.406996337890625 0.9735 M 4.189496337890625 0.007500000000000062 L 4.405496337890625 0.2370000000000001 L 4.406996337890625 1.08 L 4.192496337890625 1.08 L 4.192496337890625 0.19500000000000006 Q 4.192496337890625 0.1110000000000001 4.183496337890625 0.059250000000000025 Q 4.174496337890625 0.007500000000000062 4.174496337890625 0.007500000000000062 L 4.189496337890625 0.007500000000000062 M 5.159996337890625 0.030000000000000027 L 5.159996337890625 0.909 Q 5.159996337890625 0.9645 5.1644963378906255 1.00875 Q 5.168996337890625 1.0530000000000002 5.173496337890625 1.0770000000000002 Q 5.177996337890625 1.101 5.177996337890625 1.101 L 5.1644963378906255 1.101 L 4.946996337890625 0.8580000000000001 L 4.946996337890625 0.030000000000000027 L 5.159996337890625 0.030000000000000027 M 5.2799963378906245 0.030000000000000027 L 5.2799963378906245 0.04500000000000015 Q 5.2799963378906245 0.04500000000000015 5.266496337890625 0.04500000000000015 Q 5.252996337890625 0.04500000000000015 5.252996337890625 0.04500000000000015 Q 5.215496337890625 0.04500000000000015 5.188496337890625 0.07125000000000004 Q 5.161496337890625 0.09750000000000003 5.159996337890625 0.13650000000000007 L 5.155496337890625 0.13650000000000007 L 5.155496337890625 0.030000000000000027 L 5.2799963378906245 0.030000000000000027 M 4.825496337890625 0.030000000000000027 L 4.949996337890625 0.030000000000000027 L 4.949996337890625 0.13650000000000007 L 4.946996337890625 0.13650000000000007 Q 4.945496337890625 0.09750000000000003 4.919246337890625 0.07125000000000004 Q 4.892996337890625 0.04500000000000015 4.853996337890625 0.04500000000000015 Q 4.853996337890625 0.04500000000000015 4.840496337890625 0.04500000000000015 Q 4.826996337890625 0.04500000000000015 4.825496337890625 0.04500000000000015 L 4.825496337890625 0.030000000000000027 M 5.9624384765625 0.009000000000000119 Q 6.1424384765625 0.009000000000000119 6.2751884765625 0.07574999999999998 Q 6.4079384765625 0.14250000000000007 6.4806884765625 0.264 Q 6.5534384765625 0.38550000000000006 6.5534384765625 0.555 Q 6.5534384765625 0.7230000000000001 6.4806884765625 0.8452500000000001 Q 6.4079384765625 0.9675 6.2751884765625 1.0342500000000001 Q 6.1424384765625 1.101 5.9624384765625 1.101 Q 5.7824384765625 1.101 5.6496884765625 1.0342500000000001 Q 5.5169384765625 0.9675 5.4449384765625 0.8460000000000001 Q 5.3729384765625 0.7245000000000001 5.3729384765625 0.555 Q 5.3729384765625 0.387 5.4449384765625 0.26475000000000004 Q 5.5169384765625 0.14250000000000007 5.6496884765625 0.07574999999999998 Q 5.7824384765625 0.009000000000000119 5.9624384765625 0.009000000000000119 M 5.9624384765625 1.038 Q 6.0689384765625 1.038 6.1461884765625 0.97875 Q 6.2234384765625 0.9195000000000001 6.2646884765625 0.8115000000000001 Q 6.3059384765625 0.7035 6.3059384765625 0.555 Q 6.3059384765625 0.4065000000000001 6.2646884765625 0.2985000000000001 Q 6.2234384765625 0.1905 6.1461884765625 0.1312500000000001 Q 6.0689384765625 0.07200000000000006 5.9624384765625 0.07200000000000006 Q 5.8574384765625 0.07200000000000006 5.7801884765625005 0.1312500000000001 Q 5.7029384765625 0.1905 5.6609384765625 0.2985000000000001 Q 5.6189384765625 0.4065000000000001 5.6189384765625 0.555 Q 5.6189384765625 0.7035 5.6609384765625 0.8115000000000001 Q 5.7029384765625 0.9195000000000001 5.7801884765625005 0.97875 Q 5.8574384765625 1.038 5.9624384765625 1.038 M 7.03348095703125 0.009000000000000119 Q 7.06348095703125 0.009000000000000119 7.10773095703125 0.01200000000000001 Q 7.15198095703125 0.015000000000000124 7.19923095703125 0.0202500000000001 Q 7.24648095703125 0.025500000000000078 7.28173095703125 0.030750000000000055 Q 7.31698095703125 0.03600000000000003 7.33048095703125 0.04200000000000004 L 7.31248095703125 0.24450000000000005 L 7.29748095703125 0.24450000000000005 Q 7.29748095703125 0.1665000000000001 7.2397309570312505 0.11925000000000008 Q 7.18198095703125 0.07200000000000006 7.08598095703125 0.07200000000000006 Q 6.99898095703125 0.07200000000000006 6.94573095703125 0.1140000000000001 Q 6.89248095703125 0.15600000000000003 6.88948095703125 0.21600000000000008 Q 6.88798095703125 0.261 6.91798095703125 0.29400000000000004 Q 6.94798095703125 0.32700000000000007 6.99448095703125 0.35550000000000004 L 7.28098095703125 0.5415000000000001 Q 7.34998095703125 0.5805 7.38523095703125 0.6435000000000001 Q 7.42048095703125 0.7065000000000001 7.41598095703125 0.7905000000000001 Q 7.40848095703125 0.9375 7.30348095703125 1.01925 Q 7.19848095703125 1.101 7.01848095703125 1.101 Q 6.95248095703125 1.101 6.89023095703125 1.08975 Q 6.82798095703125 1.0785 6.77998095703125 1.0582500000000001 Q 6.73198095703125 1.038 6.70348095703125 1.0095 Q 6.69148095703125 0.9765 6.69298095703125 0.93 Q 6.69448095703125 0.8835000000000001 6.70723095703125 0.8355000000000001 Q 6.71998095703125 0.7875000000000001 6.73948095703125 0.756 L 6.75298095703125 0.756 Q 6.74698095703125 0.8325 6.78073095703125 0.89775 Q 6.81448095703125 0.9630000000000001 6.87973095703125 1.00125 Q 6.94498095703125 1.0395 7.03498095703125 1.038 Q 7.13398095703125 1.0365 7.18798095703125 0.9877500000000001 Q 7.24198095703125 0.9390000000000001 7.24198095703125 0.8700000000000001 Q 7.24198095703125 0.8235000000000001 7.21423095703125 0.786 Q 7.18648095703125 0.7485 7.12348095703125 0.7140000000000001 L 6.86098095703125 0.54 Q 6.78148095703125 0.4950000000000001 6.74548095703125 0.4245000000000001 Q 6.70948095703125 0.3540000000000001 6.71848095703125 0.2715000000000001 Q 6.72448095703125 0.1935 6.76348095703125 0.1342500000000001 Q 6.80248095703125 0.07499999999999996 6.87073095703125 0.04200000000000004 Q 6.93898095703125 0.009000000000000119 7.03348095703125 0.009000000000000119 M 7.33198095703125 0.02400000000000002 L 7.32898095703125 0.055500000000000105 L 7.15198095703125 0.055500000000000105 L 7.15198095703125 0.02400000000000002 L 7.33198095703125 0.02400000000000002 M 8.0984853515625 0.034499999999999975 L 8.0984853515625 1.08 L 7.8734853515625 1.08 L 7.8734853515625 0.034499999999999975 L 8.0984853515625 0.034499999999999975 M 8.4659853515625 0.02849999999999997 L 8.4659853515625 0.09150000000000003 L 7.5059853515625 0.09150000000000003 L 7.5059853515625 0.02849999999999997 L 8.4659853515625 0.02849999999999997 M 8.4659853515625 0.08700000000000008 L 8.4659853515625 0.264 L 8.4509853515625 0.26250000000000007 L 8.4509853515625 0.2460000000000001 Q 8.4509853515625 0.1755000000000001 8.4097353515625 0.1342500000000001 Q 8.3684853515625 0.09300000000000008 8.2979853515625 0.09150000000000003 L 8.2979853515625 0.08700000000000008 L 8.4659853515625 0.08700000000000008 M 8.4659853515625 0.0015000000000000568 L 8.4659853515625 0.04500000000000015 L 8.2829853515625 0.02849999999999997 Q 8.3159853515625 0.02849999999999997 8.352735351562501 0.02400000000000002 Q 8.3894853515625 0.019500000000000073 8.4209853515625 0.013500000000000068 Q 8.4524853515625 0.007500000000000062 8.4659853515625 0.0015000000000000568 M 7.8779853515625 0.9705 L 7.8779853515625 1.08 L 7.7579853515625 1.08 L 7.7579853515625 1.0650000000000002 Q 7.7579853515625 1.0650000000000002 7.7677353515625 1.0650000000000002 Q 7.7774853515625 1.0650000000000002 7.7774853515625 1.0650000000000002 Q 7.8164853515625 1.0650000000000002 7.8442353515625 1.03725 Q 7.8719853515625005 1.0095 7.8734853515625 0.9705 L 7.8779853515625 0.9705 M 8.0939853515625 0.9705 L 8.0984853515625 0.9705 Q 8.0999853515625 1.0095 8.1277353515625 1.03725 Q 8.1554853515625 1.0650000000000002 8.1944853515625 1.0650000000000002 Q 8.1944853515625 1.0650000000000002 8.2042353515625 1.0650000000000002 Q 8.2139853515625 1.0650000000000002 8.2139853515625 1.0650000000000002 L 8.2139853515625 1.08 L 8.0939853515625 1.08 L 8.0939853515625 0.9705 M 7.6724853515625 0.08700000000000008 L 7.6724853515625 0.09150000000000003 Q 7.6034853515625 0.09300000000000008 7.5622353515625 0.1342500000000001 Q 7.5209853515625 0.1755000000000001 7.5209853515625 0.2460000000000001 L 7.5209853515625 0.26250000000000007 L 7.5059853515625 0.264 L 7.5059853515625 0.08700000000000008 L 7.6724853515625 0.08700000000000008 M 7.5059853515625 0.0015000000000000568 Q 7.5209853515625 0.007500000000000062 7.5517353515625 0.013500000000000068 Q 7.5824853515625 0.019500000000000073 7.6199853515625 0.02400000000000002 Q 7.6574853515625 0.02849999999999997 7.6889853515625 0.02849999999999997 L 7.5059853515625 0.04500000000000015 L 7.5059853515625 0.0015000000000000568 M 8.8889736328125 0.030000000000000027 L 8.8889736328125 1.08 L 8.6639736328125 1.08 L 8.6639736328125 0.030000000000000027 L 8.8889736328125 0.030000000000000027 M 8.6684736328125 0.9705 L 8.6684736328125 1.08 L 8.5484736328125 1.08 L 8.5484736328125 1.0650000000000002 Q 8.5484736328125 1.0650000000000002 8.5582236328125 1.0650000000000002 Q 8.5679736328125 1.0650000000000002 8.5679736328125 1.0650000000000002 Q 8.6069736328125 1.0650000000000002 8.6347236328125 1.03725 Q 8.6624736328125 1.0095 8.6639736328125 0.9705 L 8.6684736328125 0.9705 M 8.6684736328125 0.13950000000000007 L 8.6639736328125 0.13950000000000007 Q 8.6624736328125 0.10050000000000003 8.6347236328125 0.07275000000000009 Q 8.6069736328125 0.04500000000000015 8.5679736328125 0.04500000000000015 Q 8.5679736328125 0.04500000000000015 8.5582236328125 0.04500000000000015 Q 8.5484736328125 0.04500000000000015 8.5484736328125 0.04500000000000015 L 8.5484736328125 0.030000000000000027 L 8.6684736328125 0.030000000000000027 L 8.6684736328125 0.13950000000000007 M 8.884473632812501 0.9705 L 8.8889736328125 0.9705 Q 8.8904736328125 1.0095 8.9182236328125 1.03725 Q 8.9459736328125 1.0650000000000002 8.9849736328125 1.0650000000000002 Q 8.9849736328125 1.0650000000000002 8.9939736328125 1.0650000000000002 Q 9.0029736328125 1.0650000000000002 9.0044736328125 1.0650000000000002 L 9.0044736328125 1.08 L 8.884473632812501 1.08 L 8.884473632812501 0.9705 M 8.884473632812501 0.13950000000000007 L 8.884473632812501 0.030000000000000027 L 9.0044736328125 0.030000000000000027 L 9.0044736328125 0.04500000000000015 Q 9.0029736328125 0.04500000000000015 8.9939736328125 0.04500000000000015 Q 8.9849736328125 0.04500000000000015 8.9849736328125 0.04500000000000015 Q 8.9459736328125 0.04500000000000015 8.9182236328125 0.07275000000000009 Q 8.8904736328125 0.10050000000000003 8.8889736328125 0.13950000000000007 L 8.884473632812501 0.13950000000000007 M 10.118980224609375 0.6420000000000001 L 10.132480224609376 0.9000000000000001 Q 10.099480224609374 0.9555 10.043980224609374 1.0005000000000002 Q 9.988480224609376 1.0455 9.905980224609374 1.07325 Q 9.823480224609375 1.101 9.710980224609376 1.101 Q 9.527980224609376 1.0995000000000001 9.390730224609374 1.0342500000000001 Q 9.253480224609374 0.9690000000000001 9.178480224609375 0.8475 Q 9.103480224609376 0.7260000000000001 9.103480224609376 0.5535000000000001 Q 9.103480224609376 0.38550000000000006 9.176980224609375 0.2632500000000001 Q 9.250480224609374 0.14100000000000001 9.387730224609374 0.07499999999999996 Q 9.524980224609376 0.009000000000000119 9.715480224609376 0.009000000000000119 Q 9.835480224609375 0.009000000000000119 9.930730224609375 0.03300000000000014 Q 10.025980224609375 0.05699999999999994 10.088980224609376 0.09150000000000003 L 10.091980224609376 0.3480000000000001 L 10.078480224609375 0.3480000000000001 Q 10.037980224609376 0.1995 9.946480224609376 0.13575000000000004 Q 9.854980224609376 0.07200000000000006 9.731980224609375 0.07200000000000006 Q 9.611980224609376 0.07200000000000006 9.526480224609376 0.13050000000000006 Q 9.440980224609374 0.18900000000000006 9.394480224609374 0.2955000000000001 Q 9.347980224609374 0.402 9.347980224609374 0.5505000000000001 Q 9.347980224609374 0.6990000000000001 9.392230224609374 0.807 Q 9.436480224609374 0.915 9.518230224609376 0.9750000000000001 Q 9.599980224609375 1.0350000000000001 9.710980224609376 1.038 Q 9.826480224609375 1.038 9.905980224609374 1.0005000000000002 Q 9.985480224609375 0.9630000000000001 10.034230224609376 0.8760000000000001 Q 10.082980224609376 0.7890000000000001 10.106980224609375 0.6420000000000001 L 10.118980224609375 0.6420000000000001" fill="#100f0d" fill-rule="nonzero"></path></g><g></g><g clip-path="url(#SvgjsClipPath1001)"><g clip-path="url(#a3332b520-a5cb-46c8-9658-4d621bc5985c02578328-8d44-4ee1-ad43-72c8f49d6c4c)"><path d=" M 0.8037584522260344 -1.5145591324403096 C 0.8246682250126312 -1.6476692103546435 0.8822817022935486 -2.054633028953556 0.8822817022935486 -2.054633028953556 L 0.2983258530705994 -2.1077109961680387 L 0.2646845106880646 -1.5308351852968274 C 0.2646845106880646 -1.5308351852968274 0.6238915510480761 -1.5148180493535515 0.8037584522260344 -1.5145591324403096" fill="#fab888" transform="matrix(1,0,0,1,0,0)" fill-rule="nonzero"></path></g><g clip-path="url(#a3332b520-a5cb-46c8-9658-4d621bc5985c02578328-8d44-4ee1-ad43-72c8f49d6c4c)"><path d=" M 1.0045619106988557 -3.863480153874351 C 0.9563587239888489 -3.8856487985494663 0.9545016647490486 -4.202679166559399 1.0353551670357355 -4.365984313459332 C 1.116208669322422 -4.529298388528686 1.1245386513932567 -4.636302499052752 1.1376094914272352 -4.807928699854097 C 1.1507606849860128 -4.98047450210592 1.2177665964989968 -5.107611634676857 1.28624565596663 -5.214553248014969 C 1.4255161707822246 -5.432052383307148 1.4586486075076988 -5.794277144931835 1.6107489017828747 -5.980768747821003 C 1.7598671874710639 -6.163617657585949 2.1058426807474993 -6.34109180935878 2.1058426807474993 -6.34109180935878 C 2.1058426807474993 -6.34109180935878 2.6164625463371833 -6.091013783845297 2.751340401797097 -5.51946809011909 C 2.7843032033035513 -5.379777951340656 2.814748261032968 -5.255140706207911 2.947920836133257 -5.046364392441139 C 3.112824125359748 -4.787831390484913 3.176071277546021 -4.310826082769497 3.1646253643468674 -3.863480153874351 Z" fill="#53403c" transform="matrix(1,0,0,1,0,0)" fill-rule="nonzero"></path></g><g clip-path="url(#a3332b520-a5cb-46c8-9658-4d621bc5985c02578328-8d44-4ee1-ad43-72c8f49d6c4c)"><path d=" M 3.6060429887457275 -4.213750096642824 C 3.4252921987949794 -4.474907980409152 2.8109805735368343 -4.4023844601933 2.613525178597307 -4.548824295054855 C 2.4160608554883574 -4.695281986255253 2.44530953851521 -5.2680508391922904 2.44530953851521 -5.2680508391922904 L 1.7450107135526618 -5.2680508391922904 C 1.7450107135526618 -5.2680508391922904 1.7742593965795155 -4.695281986255253 1.5767950734705658 -4.548824295054855 C 1.3793307503616161 -4.4023844601933 0.7650280532728927 -4.474907980409152 0.5842772633221452 -4.213750096642824 C 0.2832729594249108 -3.7787875387361543 0.8664966987552468 -3.4244017098640853 0.9542516760052295 -3.175439705528368 C 1.1492339680148307 -2.657909436805965 1.232176661946293 -2.267534156993345 1.232176661946293 -1.857159777675185 L 2.9581435901215807 -1.857159777675185 C 2.9581435901215807 -2.267534156993345 3.041086284053043 -2.657909436805965 3.2360685760626438 -3.175439705528368 C 3.3238235533126264 -3.4244017098640853 3.907047292642962 -3.7787875387361543 3.6060429887457275 -4.213750096642824" fill="#fab888" transform="matrix(1,0,0,1,0,0)" fill-rule="nonzero"></path></g><g clip-path="url(#a3332b520-a5cb-46c8-9658-4d621bc5985c02578328-8d44-4ee1-ad43-72c8f49d6c4c)"><path d=" M 1.970304140750349 -4.881434318706382 C 2.181026795451142 -4.83886480690173 2.363839992538398 -4.889621450066462 2.452523499408281 -4.9920721941852495 C 2.4388634001924427 -5.141440468617257 2.445309538515211 -5.2680508391922904 2.445309538515211 -5.2680508391922904 L 1.7450107135526622 -5.2680508391922904 C 1.7450107135526622 -5.2680508391922904 1.7578851338593542 -5.014205126182675 1.7082712963806532 -4.80127721363462 C 1.7889462352788974 -4.884657387867765 1.849773853551777 -4.905790364889915 1.970304140750349 -4.881434318706382" fill="#f2965d" transform="matrix(1,0,0,1,0,0)" fill-rule="nonzero"></path></g><g clip-path="url(#a3332b520-a5cb-46c8-9658-4d621bc5985c02578328-8d44-4ee1-ad43-72c8f49d6c4c)"><path d=" M 2.1703040639751796 -5.273050614068675 L 2.9796961911065694 -5.666140057385618 C 3.073718743290878 -5.711816572149166 3.1781604691907965 -5.769983595934255 3.20175762097345 -5.871907578057137 C 3.238764883228123 -6.031739667051865 3.0516929493265166 -6.17054591705751 3.064397734414188 -6.3341189090401055 C 3.070888513584067 -6.417668718492271 3.1289662556749342 -6.488674449906364 3.1460101311017548 -6.5707153987261915 C 3.1625808135492033 -6.650381454479737 3.1384658279400663 -6.734270534369943 3.09642307813132 -6.803928112201296 C 3.0543892564919957 -6.873576761863227 2.9955526200002485 -6.931261664499521 2.9366802708308124 -6.9873752093175225 C 2.8634207929241913 -7.057187772461754 2.7890606563227625 -7.125836140975358 2.7136278141581767 -7.193294508869126 C 2.6747545644941817 -7.228051872429516 2.6351938457847837 -7.2628003078203935 2.5893923366493263 -7.287656331491566 C 2.483173905034407 -7.345314449619593 2.3465550565371807 -7.342198518491275 2.243086501104273 -7.279737045214149 C 2.1526620011970774 -7.365402830819356 2.040622403118938 -7.430435616890052 1.916422638287876 -7.4220252812944185 C 1.792222873456814 -7.4136060175293625 1.6726032595392977 -7.351207041438191 1.5945442742817333 -7.254122127142097 C 1.5354308645379002 -7.180580795612123 1.4970575923616436 -7.086486818072437 1.4175790281659628 -7.035685534060595 C 1.3300115424738448 -6.979714839953346 1.1991781477621501 -6.980179104763296 1.1501624976347309 -6.8884421639510505 C 1.1031913983049761 -6.800535407820892 1.1683848914252704 -6.693325949400117 1.1568586247013182 -6.594303622339424 C 1.1406807817084432 -6.455113461048628 0.9776166953829082 -6.358939220033589 0.9838753421478118 -6.218972308003069 C 0.9884287085530911 -6.117360811809962 1.081558443795188 -6.0425963210691584 1.1128516776197062 -5.94583282087226 C 1.134779261720424 -5.878041230450131 1.1248064964759201 -5.804446329903625 1.1328686334640912 -5.733645946386241 C 1.1562157965029256 -5.528923021537111 2.1703040639751796 -5.273050614068675 2.1703040639751796 -5.273050614068675" fill="#53403c" transform="matrix(1,0,0,1,0,0)" fill-rule="nonzero"></path></g><g clip-path="url(#a3332b520-a5cb-46c8-9658-4d621bc5985c02578328-8d44-4ee1-ad43-72c8f49d6c4c)"><path d=" M 2.793383151605843 -6.1608231405568255 C 2.793383151605843 -6.1608231405568255 2.891521589893747 -6.305271993637248 2.9665360693783698 -6.242114123145196 C 3.0942267484534796 -6.134627891472336 2.9225023377884916 -5.685782030114275 2.759813234578685 -5.770581783285538 Z" fill="#fab888" transform="matrix(1,0,0,1,0,0)" fill-rule="nonzero"></path></g><g clip-path="url(#a3332b520-a5cb-46c8-9658-4d621bc5985c02578328-8d44-4ee1-ad43-72c8f49d6c4c)"><path d=" M 2.821194399355736 -6.131833374443213 C 2.821194399355736 -6.131833374443213 2.888628863000982 -6.223606027933148 2.940197969583126 -6.183482834550157 C 3.027952946833109 -6.115182338470966 2.8735134721693387 -5.792652218097009 2.798141865907831 -5.883898109591039 Z" fill="#fab888" transform="matrix(1,0,0,1,0,0)" fill-rule="nonzero"></path></g><g clip-path="url(#a3332b520-a5cb-46c8-9658-4d621bc5985c02578328-8d44-4ee1-ad43-72c8f49d6c4c)"><path d=" M 1.3878482239903152 -6.162001658920545 C 1.3878482239903152 -6.162001658920545 1.2899687026156526 -6.306620147219988 1.2148381569285425 -6.243596199269268 C 1.0869689144649906 -6.136324243662538 1.2579344307290985 -5.687174824544126 1.4207753128190808 -5.771706732632724 Z" fill="#fab888" transform="matrix(1,0,0,1,0,0)" fill-rule="nonzero"></path></g><g clip-path="url(#a3332b520-a5cb-46c8-9658-4d621bc5985c02578328-8d44-4ee1-ad43-72c8f49d6c4c)"><path d=" M 1.3599834072238897 -6.1330743899928875 C 1.3599834072238897 -6.1330743899928875 1.29270072245882 -6.22496310968531 1.2410691186907206 -6.18492919799654 C 1.1531980752382502 -6.116771552628103 1.3071018597366941 -5.793982515340905 1.3826252448783771 -5.885085556124181 Z" fill="#231f20" transform="matrix(1,0,0,1,0,0)" fill-rule="nonzero"></path></g><g clip-path="url(#a3332b520-a5cb-46c8-9658-4d621bc5985c02578328-8d44-4ee1-ad43-72c8f49d6c4c)"><path d=" M 2.8974231098817667 -6.052578014483085 C 2.8166231766116123 -5.415151358591081 2.3849461850522817 -4.991241874428992 2.111824554260317 -4.9914740068339665 C 1.8387118516377743 -4.9916972110695195 1.4082401629504295 -5.41616024173578 1.328020560692713 -6.053908311726981 C 1.244533248426502 -6.717592713889431 1.373179241629778 -7.217739836746972 2.113699469838961 -7.217123793056846 C 2.854219698048145 -7.216489893027876 2.9812854052637063 -6.714039302459428 2.8974231098817667 -6.052578014483085" fill="#fab888" transform="matrix(1,0,0,1,0,0)" fill-rule="nonzero"></path></g><g clip-path="url(#a3332b520-a5cb-46c8-9658-4d621bc5985c02578328-8d44-4ee1-ad43-72c8f49d6c4c)"><path d=" M 2.237006417727812 -7.227971518904718 L 2.23746175436834 -7.229694655603186 C 1.4221413227406645 -7.387151851531632 1.2581844194729181 -6.624418337800223 1.194481930646117 -6.529485112334858 C 0.8920223351330776 -6.078737550889887 1.198231761803406 -6.078175076216294 1.2609253674855077 -5.7270658855221415 C 1.3112891711956667 -5.786982830513965 1.353180142124237 -5.875353851454074 1.3827234547420204 -5.99560736540056 C 1.474147909624493 -6.367849533116862 2.2367296444757265 -6.363081890645452 2.5632417284119473 -6.845354818319917 C 2.6790490139862198 -6.786303905762039 2.7569115795164976 -6.678380193787494 2.765223705248488 -6.565376353411766 C 2.7733126267449255 -6.455300952606493 2.7205471454602175 -6.339752583945462 2.7698306406703 -6.237417906029163 C 2.8155785807892246 -6.142440039716687 2.9268235717887956 -6.055926078016379 2.9419568189592833 -5.971554876977379 C 2.957107922468615 -5.887174747768956 2.910958214725695 -5.801901801618322 2.8635049942471458 -5.734288774584634 C 3.047818123797318 -5.7341280675350355 3.131126872675087 -5.9337619358135605 3.0488359351114394 -6.1935180969806165 C 2.984794175846598 -6.395714349883288 3.0787542308449516 -7.253381089080061 2.237006417727812 -7.227971518904718" fill="#53403c" transform="matrix(1,0,0,1,0,0)" fill-rule="nonzero"></path></g><g clip-path="url(#a3332b520-a5cb-46c8-9658-4d621bc5985c02578328-8d44-4ee1-ad43-72c8f49d6c4c)"><path d=" M 3.938251244773259 0.35849045879492447 L 4.2264971945662895 0.4218447490142623 C 4.2264971945662895 0.4218447490142623 4.2958958554844004 -0.7955111516913167 4.175901258451155 -1.4194116309088143 C 4.160714442264135 -1.5022382586377887 4.169321197587055 -2.1040236621967043 4.169321197587055 -2.1040236621967043 L 3.5804280706736757 -2.0442227834073687 C 3.5804280706736757 -2.0442227834073687 3.6250778459536805 -1.5638426276503923 3.628211633420843 -1.4747662813259366 C 3.654719368435107 -0.7231215540167959 3.938251244773259 0.35849045879492447 3.938251244773259 0.35849045879492447" fill="#fab888" transform="matrix(1,0,0,1,0,0)" fill-rule="nonzero"></path></g><g clip-path="url(#SvgjsClipPath100002578328-8d44-4ee1-ad43-72c8f49d6c4c)"><path d=" M 2.423989069935197 -3.6954162926724305 L 1.7394484640026837 -3.6954162926724305 L 1.7394484640026837 -4.000304350268285 L 2.423989069935197 -4.000304350268285 Z" fill="#7a6bbd" transform="matrix(1,0,0,1,0,0)" fill-rule="nonzero"></path></g><g clip-path="url(#b3332b520-a5cb-46c8-9658-4d621bc5985c02578328-8d44-4ee1-ad43-72c8f49d6c4c)"><path d=" M 0.12344087043018219 -2.123629922247672 C 0.12344087043018219 -2.123629922247672 0.22274889891238359 -3.687622000766923 0.5751794586810087 -4.220053384254838 C 0.6702644630265491 -4.363707630256692 1.046283246408406 -4.472559871851136 1.4287928089601414 -4.4862735400835065 C 1.582794803322228 -4.099264180143024 2.080397397894467 -3.780135692318894 2.080397397894467 -3.780135692318894 C 2.080397397894467 -3.780135692318894 2.596633082050663 -4.100317704134834 2.7495547679126733 -4.489550178261424 C 2.9004408311464416 -4.4664797884746745 3.324511022358129 -4.4492930623371 3.6152122187422413 -4.3391640925152934 C 4.2519781900970095 -4.127709327921888 4.362294651476681 -2.123629922247672 4.362294651476681 -2.123629922247672 L 3.5230556539671554 -2.0384016169441486 L 3.4888339805721826 -2.440865638154314 C 3.423792266332064 -1.884908528239122 3.723225212411006 -0.3619681727227624 3.6915837799790254 0.5275632031415451 C 2.6618622878486455 0.6702085659986992 1.6716211609028646 0.6633070910354029 0.7194676047118327 0.5275632031415451 C 0.7737240902900344 0.046772351591149786 0.9744204107297904 -0.8712845255768187 1.0608093780581893 -1.638366057816798 C 1.1276545825215751 -2.2319732581850555 1.1082358140284718 -2.262221896187186 1.1082358140284718 -2.4840154809714026 C 1.0974238008582888 -2.294711504714268 1.0608093780581893 -2.0384016169441486 1.0608093780581893 -2.0384016169441486 Z" fill="#6ecdb4" transform="matrix(1,0,0,1,0,0)" fill-rule="nonzero"></path></g><g clip-path="url(#b3332b520-a5cb-46c8-9658-4d621bc5985c02578328-8d44-4ee1-ad43-72c8f49d6c4c)"><path d=" M 4.175919114789999 -2.1050682580190916 C 4.153259420796667 -1.4970063513564282 4.187248961786666 -1.4176974223797671 4.206132040114441 -1.2364109422636922 C 4.217461887111107 -1.1533253976214768 4.225899007215007 -1.0397680107415779 4.225899007215007 -1.0397680107415779 C 4.225899007215007 -1.0397680107415779 4.141929573800002 -1.051347846482063 4.0663972604888965 -1.0437946151509516 C 3.8208993858889606 -1.0286881524887308 3.667611645080643 -0.956932454843181 3.667611645080643 -0.956932454843181 C 3.6298365602556686 -1.2061980169392506 3.631640050478936 -1.404814073903653 3.6222833289245577 -1.4856765043597626 C 3.6090517818409813 -1.6001267081818735 3.599623634931226 -1.7953679171047154 3.576963940937895 -2.0446424073702074 Z" fill="#7a6bbd" transform="matrix(1,0,0,1,0,0)" fill-rule="nonzero"></path></g><g clip-path="url(#SvgjsClipPath100002578328-8d44-4ee1-ad43-72c8f49d6c4c)"><path d=" M 0.3706315597145089 -0.7563690908251299 L 0.930820621935784 -0.2500079620497946 L 2.063439266656056 -0.2500079620497946 L 3.104160263514483 -1.7133706430123716 L 1.810209597336567 -2.820740424606898 Z" fill="#f03f45" transform="matrix(1,0,0,1,0,0)" fill-rule="nonzero"></path></g><g clip-path="url(#SvgjsClipPath100002578328-8d44-4ee1-ad43-72c8f49d6c4c)"><path d=" M 0.5279239777396907 -0.8591281136865367 L 1.2017864930433528 -0.25000375486264037 L 1.9632432785473992 -0.25000375486264037 L 3.015892309753774 -1.730160322508218 L 1.83816855311297 -2.7380613685709454 Z" fill="#ffffff" transform="matrix(1,0,0,1,0,0)" fill-rule="nonzero"></path></g><g clip-path="url(#c3332b520-a5cb-46c8-9658-4d621bc5985c02578328-8d44-4ee1-ad43-72c8f49d6c4c)"><path d=" M 2.105476625801192 -2.4126972636275363 L 2.0897362631100007 -2.3950016318329013 L 2.2577733398036544 -2.2563203761991666 C 2.2684335740936614 -2.190957247859852 2.2973251303436304 -2.1097912596433916 2.417409009071097 -2.132120611368104 L 2.613828736357659 -1.9631639332239725 L 2.6298101596232475 -1.980645288952477 L 2.4265782390676107 -2.1554856307457833 L 2.4215873923606472 -2.15445889126224 C 2.336582291292677 -2.136968607364314 2.2939413541326488 -2.170476027205517 2.279049167536558 -2.26649848934038 L 2.278531333710075 -2.2698822655513613 Z" fill="#9c9d9c" transform="matrix(1,0,0,1,0,0)" fill-rule="nonzero"></path></g><g clip-path="url(#c3332b520-a5cb-46c8-9658-4d621bc5985c02578328-8d44-4ee1-ad43-72c8f49d6c4c)"><path d=" M 2.7904636402048113 -1.9818238073161965 L 2.693717996346757 -1.887828039640155 C 2.638979389619761 -1.8786677378130632 2.6112574235640897 -1.9041933741908945 2.613819808188237 -1.9631639332239734 L 2.687084366466125 -2.070301966289371 Z" fill="#100f0d" transform="matrix(1,0,0,1,0,0)" fill-rule="nonzero"></path></g><g clip-path="url(#c3332b520-a5cb-46c8-9658-4d621bc5985c02578328-8d44-4ee1-ad43-72c8f49d6c4c)"><path d=" M 2.1886068112905184 -2.496889901278095 L 2.0897362631100007 -2.3949927036634797 C 2.0134450553980154 -2.371484833575048 1.9829464286520655 -2.4027423547218776 1.9965083180042604 -2.4879349473477124 L 2.0819419712044933 -2.588180433619237 Z" fill="#100f0d" transform="matrix(1,0,0,1,0,0)" fill-rule="nonzero"></path></g><g clip-path="url(#c3332b520-a5cb-46c8-9658-4d621bc5985c02578328-8d44-4ee1-ad43-72c8f49d6c4c)"><path d=" M 2.8207837035623187 -4.068836978752451 L 2.8207837035623187 -4.021053416005284 C 2.506333576515377 -4.021053416005284 2.4268817968279626 -3.347601596495039 2.3928297586520104 -2.760913727428923 C 2.389624545829471 -2.7059072756192624 2.4087040438845335 -2.653507849280861 2.446532697726041 -2.613357871389603 C 2.4844863459394584 -2.5730828991264367 2.53583224828605 -2.5509053262818995 2.591124401517217 -2.5509053262818995 L 2.7654736939923072 -2.5509053262818995 L 2.7654736939923072 -2.5031217635347316 L 2.591124401517217 -2.5031217635347316 C 2.5225560603553627 -2.5031217635347316 2.45888928420625 -2.5306294535242717 2.411819975012852 -2.5805647051021703 C 2.364875660191364 -2.6303749623081574 2.3412160112227554 -2.6954077483788543 2.345180118446175 -2.763681459949778 C 2.3826516455107978 -3.4090720429663115 2.4684781381656036 -4.068836978752451 2.8207837035623187 -4.068836978752451" fill="#bbb8b3" transform="matrix(1,0,0,1,0,0)" fill-rule="nonzero"></path></g><g clip-path="url(#c3332b520-a5cb-46c8-9658-4d621bc5985c02578328-8d44-4ee1-ad43-72c8f49d6c4c)"><path d=" M 2.7654736939923072 -2.50311283536531 L 2.7654736939923072 -2.550896398112477 L 2.8279530236082784 -2.5758149189696047 C 2.842550580613439 -2.5816450136022464 2.8584159376765395 -2.5708687131097507 2.8584159376765395 -2.5551462067574047 L 2.8584159376765395 -2.5062823355101616 C 2.85842298490914 -2.4993156063484765 2.855163777883819 -2.492748455825562 2.8496110848407277 -2.4885409666877285 C 2.844058391797636 -2.484333477549896 2.836854431278307 -2.4829722834930195 2.830149353286121 -2.4848636570665033 Z" fill="#100f0d" transform="matrix(1,0,0,1,0,0)" fill-rule="nonzero"></path></g><g clip-path="url(#c3332b520-a5cb-46c8-9658-4d621bc5985c02578328-8d44-4ee1-ad43-72c8f49d6c4c)"><path d=" M 2.917841833350147 -4.068836978752451 L 2.917841833350147 -4.021053416005284 C 3.2322919603970885 -4.021053416005284 3.311734811915081 -3.347601596495039 3.345804706429877 -2.760913727428923 C 3.349000991082995 -2.7059072756192624 3.3299304211973544 -2.653507849280861 3.2920928391864246 -2.613357871389603 C 3.2541391909730075 -2.5730828991264367 3.2027843604569934 -2.5509053262818995 3.147492207225826 -2.5509053262818995 L 2.973142914750736 -2.5509053262818995 L 2.973142914750736 -2.5031217635347316 L 3.147492207225826 -2.5031217635347316 C 3.2160605483876807 -2.5031217635347316 3.2797273245367933 -2.5306294535242717 3.3268055618996133 -2.5805647051021703 C 3.3737409485516796 -2.6303749623081574 3.3974005975202877 -2.6954077483788543 3.3934454184662903 -2.763681459949778 C 3.3559649632322457 -3.4090720429663115 3.2701384705774403 -4.068836978752451 2.917841833350147 -4.068836978752451" fill="#bbb8b3" transform="matrix(1,0,0,1,0,0)" fill-rule="nonzero"></path></g><g clip-path="url(#c3332b520-a5cb-46c8-9658-4d621bc5985c02578328-8d44-4ee1-ad43-72c8f49d6c4c)"><path d=" M 2.973142914750736 -2.50311283536531 L 2.973142914750736 -2.550896398112477 L 2.910663585134765 -2.5758149189696047 C 2.8960660281296047 -2.5816450136022464 2.880209599235926 -2.5708687131097507 2.880209599235926 -2.5551462067574047 L 2.880209599235926 -2.5062823355101616 C 2.8801996409154302 -2.4993163290638094 2.8834567313518185 -2.4927487429763016 2.8890082113691062 -2.4885408439047474 C 2.894559691386394 -2.4843329448331923 2.9017630849944243 -2.4829717153685484 2.9084672554569257 -2.484863657066504 Z" fill="#100f0d" transform="matrix(1,0,0,1,0,0)" fill-rule="nonzero"></path></g><g clip-path="url(#c3332b520-a5cb-46c8-9658-4d621bc5985c02578328-8d44-4ee1-ad43-72c8f49d6c4c)"><path d=" M 2.8207837035623187 -4.078970451046553 L 2.917832905180725 -4.078970451046553 C 3.0943963836724997 -4.078970451046553 3.219078269652356 -3.9215936086429064 3.299021098657987 -3.5978581853969636 C 3.299913915600199 -3.594251204950429 3.2993157282489167 -3.5905103019625617 3.297369387314895 -3.587314017309444 C 3.2954145546160456 -3.584090811393353 3.2922395719210678 -3.5817949060571266 3.288566212264689 -3.580948232511475 L 3.24959475273715 -3.5718504278703387 C 3.248561709189312 -3.571606971126223 3.2475044370155497 -3.571481176703283 3.2464431089311434 -3.57147544475461 C 3.2399380579009143 -3.571529872531434 3.234313755538426 -3.5760256263543013 3.232827650562416 -3.5823588832801696 C 3.1616879966069917 -3.870729827445109 3.0586569214757677 -4.0109199437111815 2.917832905180725 -4.0109199437111815 L 2.8207837035623187 -4.0109199437111815 C 2.6799596872672757 -4.0109199437111815 2.5769196839666297 -3.870729827445109 2.505780030011206 -3.5823499551107476 C 2.5042961978428124 -3.5760165803709114 2.498669276597274 -3.571522422943327 2.492164571642478 -3.57147544475461 C 2.491128903989513 -3.57147544475461 2.490066451828281 -3.5716093672959417 2.4890307841753154 -3.5718504278703387 L 2.450050396478355 -3.580948232511475 C 2.446380622721224 -3.5817926513060785 2.4432104303011384 -3.584089752114535 2.4412650777669924 -3.587314017309444 C 2.4392973961222917 -3.5904552930943225 2.438694532213371 -3.594262684946917 2.4395955100850566 -3.5978581853969636 C 2.5195472672601094 -3.9215936086429064 2.6442291532399658 -4.078970451046553 2.8207837035623187 -4.078970451046553" fill="#100f0d" transform="matrix(1,0,0,1,0,0)" fill-rule="nonzero"></path></g><g clip-path="url(#c3332b520-a5cb-46c8-9658-4d621bc5985c02578328-8d44-4ee1-ad43-72c8f49d6c4c)"><path d=" M 2.8693083043715215 -3.9195758423535088 C 2.970062696300106 -3.9195758423535088 3.0643173808893893 -3.853962725270375 3.141858532320471 -3.7298165294558454 C 3.1905170556710054 -3.651936107586723 3.218667573858939 -3.573109299758857 3.226631500983467 -3.549190733877008 L 3.3111366245637988 -3.571421875738077 C 3.3152879763291243 -3.572279744432338 3.319384788363238 -3.569739110660398 3.3204614955990936 -3.5656390665503523 C 3.3215382028349487 -3.5615390224403067 3.3192182942456214 -3.5573133020350802 3.315181085312018 -3.5560207834849265 L 3.216006979371148 -3.5299326724335023 L 3.213774937015619 -3.5372716276984817 C 3.2126589158378542 -3.540941105330972 3.1000122022390113 -3.903639059935031 2.8693083043715215 -3.903639059935031 C 2.6385151248098113 -3.903639059935031 2.5265290957482045 -3.540137570082982 2.525430930909284 -3.5364770206199134 L 2.5232970984173986 -3.529423766776442 L 2.429229905385979 -3.5499407001084653 C 2.4249301677226534 -3.550875104107548 2.422202025756302 -3.5551182142867157 2.423136429755385 -3.5594179519500417 C 2.4240708337544676 -3.5637176896133673 2.428313943933636 -3.566445831579719 2.4326136815969615 -3.5655114275806365 L 2.512449372569527 -3.5480925690380873 C 2.520234736305612 -3.571689720820741 2.548304900968746 -3.6510165061362456 2.597025921505236 -3.7294058336624283 C 2.6743974377172974 -3.853810946390199 2.7685449842735155 -3.9195758423535088 2.8693083043715215 -3.9195758423535088" fill="#dbdad8" transform="matrix(1,0,0,1,0,0)" fill-rule="nonzero"></path></g><g clip-path="url(#c3332b520-a5cb-46c8-9658-4d621bc5985c02578328-8d44-4ee1-ad43-72c8f49d6c4c)"><path d=" M 1.4798619380546476 -4.501567494303592 C 1.4600823153986584 -4.512771835225498 1.4415012354024372 -4.5259709537158095 1.4244090777738823 -4.540958577793971 C 1.2302481773511156 -4.3142991406746996 1.177670187624272 -3.8825775082682576 1.2638091662088515 -3.221384065374579 L 1.3309936411102778 -3.2301604559165193 C 1.2469349260010514 -3.8754528290694092 1.2954505986408322 -4.291148397363152 1.4793262478893205 -4.500996091460577 C 1.479495883108341 -4.501192511187863 1.4796833746662053 -4.501371074576305 1.4798619380546476 -4.501567494303592" fill="#100f0d" transform="matrix(1,0,0,1,0,0)" fill-rule="nonzero"></path></g><g clip-path="url(#c3332b520-a5cb-46c8-9658-4d621bc5985c02578328-8d44-4ee1-ad43-72c8f49d6c4c)"><path d=" M 2.73380547705206 -4.551511674050912 C 2.7127528535547096 -4.540878224269171 2.691887721615223 -4.529914432218812 2.6718350530931496 -4.517370354180738 C 2.7603132120663236 -4.419267628570522 2.810239535474799 -4.26836370899791 2.8246049600749843 -4.038597268919743 L 2.8922269152780946 -4.04284707756467 C 2.8774329385456476 -4.279488208097867 2.8276851785256145 -4.441141643654708 2.73380547705206 -4.551511674050912" fill="#100f0d" transform="matrix(1,0,0,1,0,0)" fill-rule="nonzero"></path></g><g clip-path="url(#c3332b520-a5cb-46c8-9658-4d621bc5985c02578328-8d44-4ee1-ad43-72c8f49d6c4c)"><path d=" M 1.4850938453360076 -3.0872204634684355 C 1.4850938453360076 -2.992680077457644 1.4085437207107812 -2.9160406711381963 1.3141283290718997 -2.9160406711381963 C 1.219712937433018 -2.9160406711381963 1.1431717409772137 -2.992680077457644 1.1431717409772137 -3.0872204634684355 C 1.1431717409772137 -3.181760849479227 1.219712937433018 -3.2583823994598298 1.3141283290718997 -3.2583823994598298 C 1.4085437207107812 -3.2583823994598298 1.4850938453360076 -3.181760849479227 1.4850938453360076 -3.0872204634684355" fill="#dbdad8" transform="matrix(1,0,0,1,0,0)" fill-rule="nonzero"></path></g><g clip-path="url(#c3332b520-a5cb-46c8-9658-4d621bc5985c02578328-8d44-4ee1-ad43-72c8f49d6c4c)"><path d=" M 1.4571843877224717 -3.0872204634684355 C 1.4571843877224717 -3.008107954219061 1.3931337002882083 -2.9439769132599993 1.3141283290718997 -2.9439769132599993 C 1.2351140296861691 -2.9439769132599993 1.1710722704213277 -3.008107954219061 1.1710722704213277 -3.0872204634684355 C 1.1710722704213277 -3.1663240445483876 1.2351140296861691 -3.230455085507449 1.3141283290718997 -3.230455085507449 C 1.3931337002882083 -3.230455085507449 1.4571843877224717 -3.1663240445483876 1.4571843877224717 -3.0872204634684355" fill="#8a8889" transform="matrix(1,0,0,1,0,0)" fill-rule="nonzero"></path></g><g clip-path="url(#c3332b520-a5cb-46c8-9658-4d621bc5985c02578328-8d44-4ee1-ad43-72c8f49d6c4c)"><path d=" M 1.390508818478106 -3.0872204634684355 C 1.390508818478106 -3.044981293932403 1.356305001421978 -3.0107417641985856 1.3141283290718997 -3.0107417641985856 C 1.2719427285523994 -3.0107417641985856 1.2377478396656934 -3.044981293932403 1.2377478396656934 -3.0872204634684355 C 1.2377478396656934 -3.1294507048350466 1.2719427285523994 -3.163690234568863 1.3141283290718997 -3.163690234568863 C 1.356305001421978 -3.163690234568863 1.390508818478106 -3.1294507048350466 1.390508818478106 -3.0872204634684355" fill="#dbdad8" transform="matrix(1,0,0,1,0,0)" fill-rule="nonzero"></path></g><g clip-path="url(#c3332b520-a5cb-46c8-9658-4d621bc5985c02578328-8d44-4ee1-ad43-72c8f49d6c4c)"><path d=" M 1.680986810626665 -4.709531344652951 C 1.680986810626665 -4.709531344652951 1.5344487659014676 -4.680827279960846 1.428391041336146 -4.545735148434803 C 1.4117757180415873 -4.526789572921071 1.3962764159247933 -4.506227998741936 1.3817056434278991 -4.484327199149485 C 1.4005172964002985 -4.47186347463621 1.4192753803561653 -4.459265827581604 1.4389084249153994 -4.448052046787426 C 1.451604281833649 -4.4669083406069365 1.4650054641362458 -4.484666469587526 1.4793262478893205 -4.501005019629999 C 1.5269312472480456 -4.555332930563577 1.5796610158550655 -4.598527414227777 1.6447295146034502 -4.624928011208976 C 1.6447295146034502 -4.624928011208976 1.671924718663217 -4.673274048629736 1.680986810626665 -4.709531344652951" fill="#100f0d" transform="matrix(1,0,0,1,0,0)" fill-rule="nonzero"></path></g><g clip-path="url(#c3332b520-a5cb-46c8-9658-4d621bc5985c02578328-8d44-4ee1-ad43-72c8f49d6c4c)"><path d=" M 2.5590365606141305 -4.605053906075344 C 2.6372651810907146 -4.572055391891201 2.682138160606272 -4.516986442895587 2.7240112751959984 -4.445677153721143 C 2.7254487104729592 -4.446391407274913 2.726850433072231 -4.447141373506371 2.728493216245901 -4.447677063671698 C 2.749206569305211 -4.454596394973837 2.769866353347988 -4.4616853614949985 2.79020472329157 -4.469479653400506 C 2.75696514853303 -4.529423382900596 2.7154670170590327 -4.57825154147015 2.6646835893860343 -4.6177854756712815 C 2.6025167456998375 -4.664211956666287 2.5148956909911866 -4.692916021358392 2.5148956909911866 -4.692916021358392 C 2.533019874918083 -4.6475966333717285 2.5590365606141305 -4.605053906075344 2.5590365606141305 -4.605053906075344" fill="#100f0d" transform="matrix(1,0,0,1,0,0)" fill-rule="nonzero"></path></g><g clip-path="url(#c3332b520-a5cb-46c8-9658-4d621bc5985c02578328-8d44-4ee1-ad43-72c8f49d6c4c)"><path d=" M 0.9203335603706089 -1.5574411301747348 L 1.6836652614532999 -0.9576377802275289 C 1.6836652614532999 -0.9576377802275289 2.118895664442633 -0.8589993644519867 2.1608134198794695 -0.8254026629165621 C 2.202731175316307 -0.7918148895505599 2.304289102492881 -0.6057429106242305 2.304289102492881 -0.6057429106242305 C 2.250773654976715 -0.5668071637743806 2.1908924226625803 -0.5637805143402836 2.1162618544631084 -0.6441340391393311 C 2.0956199267591753 -0.6778646632160878 2.0685050762242074 -0.6981137514654483 2.0366047268789855 -0.7084079308091473 L 2.0979412508089257 -0.5895918521396224 L 2.2632730921676782 -0.5063991694643404 C 2.3354930546231785 -0.44523228075342125 2.323681086477718 -0.38246724971594226 2.2599964539897615 -0.3400048759443566 C 2.2615856681468984 -0.28056112393190524 2.2330065978267037 -0.25023213240497544 2.186205133715969 -0.23752734731730385 C 2.1749645684135244 -0.1723517105358532 2.1288327170094483 -0.16366460168813468 2.0815491317499197 -0.1568077675719497 C 2.04708639778055 -0.10136383546060479 2.0163020696130927 -0.09776578318349305 1.962813406605193 -0.10880100058922881 C 1.962813406605193 -0.10880100058922881 1.7380735259116773 -0.22627785384543664 1.7020394341240153 -0.257231817231915 C 1.665996414166931 -0.2881857806183925 1.4660232754503666 -0.5953862340945761 1.4660232754503666 -0.5953862340945761 C 1.4660232754503666 -0.5953862340945761 0.14856473918401777 -1.3719137695831547 0.27717501970960534 -1.594671596664961 C 0.405785300235193 -1.8174204955773439 0.9203335603706089 -1.5574411301747348 0.9203335603706089 -1.5574411301747348" fill="#fab888" transform="matrix(1,0,0,1,0,0)" fill-rule="nonzero"></path></g><g clip-path="url(#c3332b520-a5cb-46c8-9658-4d621bc5985c02578328-8d44-4ee1-ad43-72c8f49d6c4c)"><path d=" M 0.25237256505496597 -1.5827435623170123 C 0.25237256505496597 -1.645892504639642 0.26844327001477564 -1.8538206423113124 0.29013872171051863 -2.107710996168038 L 0.8872368363228234 -2.052606334494735 C 0.8732999638548994 -1.9131304717824316 0.837087308678795 -1.7770116007728438 0.826882411029316 -1.6383928423250644 L 1.0021245204466178 -1.498488427480499 C 1.0021245204466178 -1.498488427480499 0.88882605047996 -1.4331252991411843 0.805731577668322 -1.3047203665123064 C 0.7528589583505484 -1.2442945158634222 0.7226460330261064 -1.0705612670784577 0.7226460330261064 -1.0705612670784577 L 0.42610581383993024 -1.3032650748965002 C 0.3052451843727397 -1.4014570822009373 0.25237256505496597 -1.499658017674797 0.25237256505496597 -1.5827435623170123" fill="#7a6bbd" transform="matrix(1,0,0,1,0,0)" fill-rule="nonzero"></path></g><g clip-path="url(#d3332b520-a5cb-46c8-9658-4d621bc5985c02578328-8d44-4ee1-ad43-72c8f49d6c4c)"><path d=" M 1.3312079171764086 -6.1810454442979195 L 1.3402521528010125 -6.105361352106638 C 1.3402521528010125 -6.105361352106638 1.3758041234398803 -6.098781291242538 1.3945800637345913 -6.040676764643404 C 1.3973745807637137 -6.032025368473374 1.4052670825328644 -6.026025638621711 1.414355959004579 -6.026025638621711 L 1.4299534709850166 -6.026025638621711 C 1.4333997443819535 -5.9763671602959 1.4629430569997368 -5.712995090512886 1.6998788171238635 -5.698174329272173 C 1.7085226215818463 -5.697631263595781 1.7171810926941364 -5.697354359258284 1.7258419338033792 -5.697344009515916 C 1.8035884331311682 -5.697344009515916 1.8670677177224162 -5.72047689648862 1.91487806497785 -5.766278405624077 C 2.001883075996375 -5.849649651687801 2.0093738101415304 -5.980072350606077 2.0099005721374357 -6.010303132269364 L 2.0161770752411834 -6.010303132269364 C 2.0221589487540013 -6.010303132269364 2.027185508138653 -6.0147940014886885 2.0278194081676233 -6.020758018662662 C 2.02894435751481 -6.031284330411338 2.0306942787215445 -6.04812285794145 2.032087073151395 -6.063613231888821 C 2.032087073151395 -6.063613231888821 2.080084911964693 -6.078764335398153 2.1128602219132824 -6.078764335398153 C 2.14562660369245 -6.078764335398153 2.1936422988445923 -6.063613231888821 2.1936422988445923 -6.063613231888821 C 2.1950261651050202 -6.04812285794145 2.196776086311755 -6.031284330411338 2.197909963828364 -6.020758018662662 C 2.198536677182131 -6.014807337904401 2.203559785181356 -6.010293094261199 2.2095433685853814 -6.010303132269364 L 2.215810943519707 -6.010303132269364 C 2.216355561854457 -5.980072350606077 2.22383736783019 -5.849649651687801 2.3108423788487147 -5.766278405624077 C 2.3586437979347266 -5.72047689648862 2.422140938864819 -5.697344009515916 2.499878510023187 -5.697344009515916 C 2.508351342804775 -5.697344009515916 2.51702059531365 -5.697629710937424 2.5258505548721235 -5.698174329272173 C 2.76278631499625 -5.7129950905128855 2.7923296276140337 -5.9763671602959 2.7957759010109706 -6.026025638621711 L 2.8113734129914083 -6.026025638621711 C 2.820435504954856 -6.026025638621711 2.8283547912322735 -6.032025368473374 2.831140380091974 -6.040676764643404 C 2.849925248556107 -6.098781291242538 2.8854682910255525 -6.105361352106638 2.8854682910255525 -6.105361352106638 L 2.894512526650156 -6.1810454442979195 C 2.894512526650156 -6.1810454442979195 2.4677371001035677 -6.272666318907678 2.1915173945221285 -6.09566536011422 C 2.1915173945221285 -6.09566536011422 2.1484657615686826 -6.10811122828865 2.1128602219132824 -6.10811122828865 C 2.0772636104273046 -6.10811122828865 2.0342119774738587 -6.09566536011422 2.0342119774738587 -6.09566536011422 C 1.7579833437229975 -6.272666318907678 1.3312079171764086 -6.1810454442979195 1.3312079171764086 -6.1810454442979195 M 2.2277479060370773 -6.011829849240546 C 2.2285246567768016 -6.022007962381759 2.2363368050211534 -6.086237213204464 2.3111280802702225 -6.118137562549687 C 2.392481560044548 -6.152841357093454 2.74026054354425 -6.174581449636307 2.7620363487647928 -6.133244025211908 C 2.7834282427001833 -6.092665495188388 2.783856794832445 -6.028543382398748 2.783856794832445 -6.026239914687842 C 2.7804194496049304 -5.977393899779443 2.7516439595574487 -5.7242624403235975 2.5250916604712432 -5.710075579111853 C 2.439050891750307 -5.70470082111974 2.369643302662774 -5.726467698170859 2.319136648241861 -5.774858376438731 C 2.2351404303185896 -5.8552743984237345 2.2282657398635597 -5.986018511441207 2.227747906037077 -6.011829849240546 M 1.4418636489941197 -6.026239914687842 C 1.441872577163542 -6.028543382398748 1.4423011292958035 -6.092665495188388 1.4636840950617722 -6.133244025211908 C 1.4854688284517366 -6.174581449636307 1.833247811951439 -6.152841357093454 1.914601291725764 -6.118137562549687 C 1.9893836388054118 -6.086237213204464 1.9971957870497634 -6.022007962381759 1.9979725377894877 -6.011829849240546 C 1.997445775793583 -5.986018511441207 1.990580013507975 -5.8552743984237345 1.9065927237541258 -5.774858376438731 C 1.8560771411637909 -5.726467698170859 1.7866695520762574 -5.70470082111974 1.700628783355321 -5.710075579111853 C 1.4740764842691159 -5.7242624403235975 1.4453009942216344 -5.977393899779443 1.4418636489941195 -6.026239914687842" fill="#6ecdb4" transform="matrix(1,0,0,1,0,0)" fill-rule="nonzero"></path></g><g clip-path="url(#d3332b520-a5cb-46c8-9658-4d621bc5985c02578328-8d44-4ee1-ad43-72c8f49d6c4c)"><path d=" M 1.3312079171764086 -6.1810454442979195 L 1.3402521528010125 -6.105361352106638 C 1.3402521528010125 -6.105361352106638 1.3758041234398803 -6.098781291242538 1.3945800637345913 -6.040676764643404 C 1.3973745807637137 -6.032025368473374 1.4052670825328644 -6.026025638621711 1.414355959004579 -6.026025638621711 L 1.4299534709850166 -6.026025638621711 C 1.4333997443819535 -5.9763671602959 1.4629430569997368 -5.712995090512886 1.6998788171238635 -5.698174329272173 C 1.7085226215818463 -5.697631263595781 1.7171810926941364 -5.697354359258284 1.7258419338033792 -5.697344009515916 C 1.8035884331311682 -5.697344009515916 1.8670677177224162 -5.72047689648862 1.91487806497785 -5.766278405624077 C 2.001883075996375 -5.849649651687801 2.0093738101415304 -5.980072350606077 2.0099005721374357 -6.010303132269364 L 2.0161770752411834 -6.010303132269364 C 2.0221589487540013 -6.010303132269364 2.027185508138653 -6.0147940014886885 2.0278194081676233 -6.020758018662662 C 2.02894435751481 -6.031284330411338 2.0306942787215445 -6.04812285794145 2.032087073151395 -6.063613231888821 C 2.032087073151395 -6.063613231888821 2.080084911964693 -6.078764335398153 2.1128602219132824 -6.078764335398153 C 2.14562660369245 -6.078764335398153 2.1936422988445923 -6.063613231888821 2.1936422988445923 -6.063613231888821 C 2.1950261651050202 -6.04812285794145 2.196776086311755 -6.031284330411338 2.197909963828364 -6.020758018662662 C 2.198536677182131 -6.014807337904401 2.203559785181356 -6.010293094261199 2.2095433685853814 -6.010303132269364 L 2.215810943519707 -6.010303132269364 C 2.216355561854457 -5.980072350606077 2.22383736783019 -5.849649651687801 2.3108423788487147 -5.766278405624077 C 2.3586437979347266 -5.72047689648862 2.422140938864819 -5.697344009515916 2.499878510023187 -5.697344009515916 C 2.508351342804775 -5.697344009515916 2.51702059531365 -5.697629710937424 2.5258505548721235 -5.698174329272173 C 2.76278631499625 -5.7129950905128855 2.7923296276140337 -5.9763671602959 2.7957759010109706 -6.026025638621711 L 2.8113734129914083 -6.026025638621711 C 2.820435504954856 -6.026025638621711 2.8283547912322735 -6.032025368473374 2.831140380091974 -6.040676764643404 C 2.849925248556107 -6.098781291242538 2.8854682910255525 -6.105361352106638 2.8854682910255525 -6.105361352106638 L 2.894512526650156 -6.1810454442979195 C 2.894512526650156 -6.1810454442979195 2.4677371001035677 -6.272666318907678 2.1915173945221285 -6.09566536011422 C 2.1915173945221285 -6.09566536011422 2.1484657615686826 -6.10811122828865 2.1128602219132824 -6.10811122828865 C 2.0772636104273046 -6.10811122828865 2.0342119774738587 -6.09566536011422 2.0342119774738587 -6.09566536011422 C 1.7579833437229975 -6.272666318907678 1.3312079171764086 -6.1810454442979195 1.3312079171764086 -6.1810454442979195 Z M 2.2277479060370773 -6.011829849240546 C 2.2285246567768016 -6.022007962381759 2.2363368050211534 -6.086237213204464 2.3111280802702225 -6.118137562549687 C 2.392481560044548 -6.152841357093454 2.74026054354425 -6.174581449636307 2.7620363487647928 -6.133244025211908 C 2.7834282427001833 -6.092665495188388 2.783856794832445 -6.028543382398748 2.783856794832445 -6.026239914687842 C 2.7804194496049304 -5.977393899779443 2.7516439595574487 -5.7242624403235975 2.5250916604712432 -5.710075579111853 C 2.439050891750307 -5.70470082111974 2.369643302662774 -5.726467698170859 2.319136648241861 -5.774858376438731 C 2.2351404303185896 -5.8552743984237345 2.2282657398635597 -5.986018511441207 2.227747906037077 -6.011829849240546 Z M 1.44186364899412 -6.026239914687842 C 1.4418725771635421 -6.028543382398748 1.4423011292958037 -6.092665495188388 1.4636840950617727 -6.133244025211908 C 1.4854688284517368 -6.174581449636307 1.833247811951439 -6.152841357093454 1.9146012917257644 -6.118137562549687 C 1.9893836388054118 -6.086237213204464 1.9971957870497639 -6.022007962381759 1.997972537789488 -6.011829849240546 C 1.997445775793583 -5.986018511441207 1.9905800135079754 -5.8552743984237345 1.9065927237541258 -5.774858376438731 C 1.8560771411637909 -5.726467698170859 1.7866695520762574 -5.70470082111974 1.7006287833553213 -5.710075579111853 C 1.474076484269116 -5.724262440323597 1.4453009942216346 -5.977393899779443 1.44186364899412 -6.026239914687842 Z" fill="none" transform="matrix(1,0,0,1,0,0)" fill-rule="nonzero" stroke-dasharray="none" stroke-miterlimit="10" stroke-linejoin="miter" stroke-linecap="butt" stroke-width="0.018883078327776314" stroke="#6ecdb4"></path></g></g></g><defs><clipPath id="SvgjsClipPath1001"><path d=" M 0 -7.466748899505562 h 4.526224925586698 v 7.216748899505562 h -4.526224925586698 Z"></path></clipPath><clipPath id="a3332b520-a5cb-46c8-9658-4d621bc5985c02578328-8d44-4ee1-ad43-72c8f49d6c4c"><path d=" M 0 -0.25 L 4.526206913897317 -0.25 L 4.526206913897317 -7.466728625590956 L 0 -7.466728625590956 Z"></path></clipPath><clipPath id="SvgjsClipPath100002578328-8d44-4ee1-ad43-72c8f49d6c4c"><path d=" M 0 -7.466748899505562 L 4.526224925586698 -7.466748899505562 L 4.526224925586698 -0.25 L 0 -0.25 Z"></path></clipPath><clipPath id="b3332b520-a5cb-46c8-9658-4d621bc5985c02578328-8d44-4ee1-ad43-72c8f49d6c4c"><path d=" M 0 -0.25 L 4.526206913897317 -0.25 L 4.526206913897317 -7.466728625590956 L 0 -7.466728625590956 Z"></path></clipPath><clipPath id="c3332b520-a5cb-46c8-9658-4d621bc5985c02578328-8d44-4ee1-ad43-72c8f49d6c4c"><path d=" M 0 -0.25 L 4.526206913897317 -0.25 L 4.526206913897317 -7.466728625590956 L 0 -7.466728625590956 Z"></path></clipPath><clipPath id="d3332b520-a5cb-46c8-9658-4d621bc5985c02578328-8d44-4ee1-ad43-72c8f49d6c4c"><path d=" M 1.220703964238873 -5.5951611104797925 L 2.962607674832639 -5.5951611104797925 L 2.962607674832639 -6.274353742928458 L 1.220703964238873 -6.274353742928458 Z"></path></clipPath></defs></svg>